<?xml version="1.0" encoding="UTF-8"?><svg id="Calque_2" xmlns="http://www.w3.org/2000/svg" viewBox="0 0 210.49 112.09"><defs><style>.cls-1{fill:#fff;}.cls-2{fill:#000030;}</style></defs><g id="Calque_1-2"><g><path class="cls-2" d="m209.49,1.01v110.03h-112.71c9.56-3.97,16.3-13.4,16.3-24.37V1.01h96.41m1-1h-98.41v86.66c0,14.01-11.36,25.37-25.37,25.37h123.78V0h0Z"/><path class="cls-2" d="m86.74,112.09H0V25.34C0,11.37,11.37,0,25.34,0h86.74v86.74c0,13.97-11.37,25.34-25.34,25.34Z"/><path class="cls-1" d="m72.58,28.58l-17.4,27.9-17.16-27.9h-13.12v60.04h14.32v-18.18c0-5.72-.13-10.62-.39-14.71-.06-.94-.13-1.87-.21-2.8l13.38,21.02h5.83l13.89-21.51c-.11,1.26-.21,2.53-.29,3.8-.26,4.2-.39,8.94-.39,14.2v18.18h14.24V28.58h-12.69Z"/><path class="cls-2" d="m172.12,28.58l-17.4,27.9-17.16-27.9h-13.12v60.04h14.32v-18.18c0-5.72-.13-10.62-.39-14.71-.06-.94-.13-1.87-.22-2.8l13.38,21.03h5.83l13.89-21.51c-.11,1.26-.21,2.52-.29,3.8-.26,4.2-.39,8.93-.39,14.19v18.18h14.24V28.58h-12.69Z"/></g></g></svg>