<?xml version="1.0" encoding="UTF-8"?><svg id="Calque_2" xmlns="http://www.w3.org/2000/svg" viewBox="0 0 284.12 54.56"><defs><style>.cls-1{fill:#fff;}.cls-2{fill:#000030;}</style></defs><g id="Calque_1-2"><g><path class="cls-1" d="m138.34,0h0s-127.56,0-127.56,0C4.83,0,0,4.83,0,10.79v43.77h284.12V0h-145.78Zm144.61,53.39h-150.53c3.51-1.78,5.92-5.41,5.92-9.62V1.17h144.61v52.22Z"/><g><path class="cls-2" d="m34.11,27.5l-8.55-13.9h-6.54v29.91h7.14v-9.06c0-2.85-.06-5.29-.19-7.33-.03-.48-.09-.95-.13-1.43l6.69,10.51h2.91l6.94-10.74c-.06.64-.12,1.27-.16,1.92-.13,2.09-.19,4.45-.19,7.07v9.06h7.09V13.6h-6.32l-8.67,13.9Z"/><rect class="cls-2" x="56.24" y="20.82" width="6.88" height="22.69"/><path class="cls-2" d="m59.7,9.24c-1.28,0-2.29.33-3.03.98-.74.66-1.11,1.51-1.11,2.56,0,1.14.36,2.02,1.09,2.63.73.61,1.75.92,3.06.92s2.24-.33,2.97-.98c.73-.66,1.09-1.51,1.09-2.56,0-1.14-.36-2.02-1.09-2.63-.73-.61-1.72-.92-2.97-.92Z"/><path class="cls-2" d="m87.48,21.39c-1.17-.7-2.61-1.05-4.32-1.05-1.25,0-2.45.26-3.59.77-1.14.51-2.11,1.19-2.93,2.03-.14.14-.26.29-.38.44l-.15-2.77h-6.54v22.69h6.88v-13.5c0-.57.1-1.08.3-1.54s.49-.86.88-1.22c.39-.36.83-.63,1.35-.81.51-.18,1.07-.28,1.67-.28.77-.03,1.41.1,1.92.38.51.29.9.73,1.15,1.32s.39,1.35.39,2.26v13.38h6.88v-13.89c0-2.02-.29-3.72-.88-5.11-.58-1.38-1.46-2.42-2.63-3.12Z"/><path class="cls-2" d="m112.05,11.89v11.15c-.33-.33-.69-.64-1.09-.93-.75-.54-1.61-.97-2.56-1.28-.96-.31-1.95-.47-2.97-.47-1.97,0-3.73.51-5.28,1.54-1.55,1.03-2.77,2.43-3.65,4.21-.88,1.78-1.32,3.81-1.32,6.09s.44,4.31,1.32,6.09c.88,1.78,2.1,3.17,3.65,4.17,1.55,1,3.3,1.5,5.24,1.5,1.05,0,2.05-.14,2.99-.43.94-.28,1.79-.68,2.54-1.18.57-.37,1.02-.8,1.42-1.26l.18,2.43h6.41V11.89h-6.88Zm-.47,23.5c-.43.91-1.02,1.62-1.77,2.12-.75.5-1.66.75-2.71.75s-1.92-.25-2.67-.75c-.76-.5-1.35-1.2-1.77-2.12-.43-.91-.64-1.98-.64-3.2s.21-2.34.64-3.25c.43-.91,1.02-1.62,1.77-2.12.75-.5,1.64-.75,2.67-.75s1.96.25,2.71.75c.75.5,1.35,1.2,1.77,2.12.43.91.64,1.99.64,3.25s-.21,2.29-.64,3.2Z"/></g><g><path class="cls-1" d="m165.69,27.5l-8.55-13.9h-6.54v29.92h7.14v-9.06c0-2.85-.06-5.29-.19-7.33-.03-.48-.09-.95-.13-1.43l6.69,10.51h2.91l6.93-10.74c-.06.64-.12,1.27-.16,1.92-.13,2.09-.19,4.45-.19,7.07v9.06h7.09V13.59h-6.32l-8.67,13.9Z"/><path class="cls-1" d="m201.76,21.2c-1.4-.57-3.05-.85-4.96-.85-2.08,0-4,.4-5.77,1.2-1.77.8-3.33,1.89-4.7,3.29l4.1,3.97c.8-.94,1.63-1.62,2.5-2.03.87-.41,1.86-.62,2.97-.62s2.03.28,2.67.83.96,1.42.96,2.59v.51h-3.38c-1.68,0-3.16.15-4.42.45-1.27.3-2.32.74-3.16,1.32-.84.58-1.47,1.32-1.9,2.2-.43.88-.64,1.91-.64,3.08,0,1.37.33,2.56,1,3.57.67,1.01,1.58,1.8,2.73,2.37,1.15.57,2.44.85,3.87.85,1.08,0,2.12-.21,3.1-.64.98-.43,1.89-1.01,2.74-1.75.02-.02.04-.04.06-.06v2.03h6.62v-15.26c0-1.79-.38-3.28-1.15-4.44-.77-1.17-1.85-2.04-3.25-2.61Zm-2.59,16.28c-.53.46-1.13.81-1.8,1.05-.67.24-1.37.36-2.12.36-.51,0-.96-.09-1.35-.26-.39-.17-.69-.41-.92-.73-.23-.31-.34-.68-.34-1.11,0-.4.08-.74.24-1.03.16-.28.39-.53.7-.75.31-.21.7-.37,1.15-.47.46-.1.98-.15,1.58-.15h3.2v2.7c-.12.13-.23.26-.36.38Z"/><path class="cls-1" d="m229.54,21.39c-1.17-.7-2.61-1.05-4.32-1.05-1.25,0-2.45.26-3.59.77-1.14.51-2.12,1.19-2.93,2.03-.14.14-.26.29-.38.44l-.15-2.77h-6.54v22.69h6.88v-13.5c0-.57.1-1.08.3-1.54.2-.46.49-.86.87-1.22.39-.36.83-.63,1.35-.81.51-.18,1.07-.28,1.67-.28.77-.03,1.41.1,1.92.38.51.29.9.73,1.15,1.32s.39,1.35.39,2.26v13.38h6.88v-13.89c0-2.02-.29-3.72-.88-5.11-.58-1.38-1.46-2.42-2.63-3.12Z"/><path class="cls-1" d="m242.66,9.24c-1.28,0-2.29.33-3.03.98-.74.66-1.11,1.51-1.11,2.56,0,1.14.36,2.02,1.09,2.63.73.61,1.74.92,3.06.92s2.24-.33,2.97-.98c.73-.66,1.09-1.51,1.09-2.56,0-1.14-.36-2.02-1.09-2.63-.73-.61-1.72-.92-2.97-.92Z"/><rect class="cls-1" x="239.19" y="20.82" width="6.88" height="22.69"/><path class="cls-1" d="m270.09,23.81c-.77-1.17-1.85-2.04-3.25-2.61-1.4-.57-3.05-.85-4.96-.85-2.08,0-4,.4-5.77,1.2-1.77.8-3.33,1.89-4.7,3.29l4.1,3.97c.8-.94,1.63-1.62,2.5-2.03.87-.41,1.86-.62,2.97-.62s2.03.28,2.67.83c.64.56.96,1.42.96,2.59v.51h-3.38c-1.68,0-3.16.15-4.42.45-1.27.3-2.32.74-3.16,1.32-.84.58-1.47,1.32-1.9,2.2-.43.88-.64,1.91-.64,3.08,0,1.37.33,2.56,1,3.57.67,1.01,1.58,1.8,2.73,2.37,1.15.57,2.44.85,3.87.85,1.08,0,2.12-.21,3.1-.64.98-.43,1.89-1.01,2.74-1.75.02-.02.04-.04.06-.06v2.03h6.62v-15.26c0-1.79-.38-3.28-1.15-4.44Zm-5.83,13.68c-.53.46-1.13.81-1.8,1.05-.67.24-1.37.36-2.12.36-.51,0-.96-.09-1.35-.26-.39-.17-.69-.41-.92-.73-.23-.31-.34-.68-.34-1.11,0-.4.08-.74.24-1.03.16-.28.39-.53.7-.75.31-.21.7-.37,1.15-.47.46-.1.98-.15,1.58-.15h3.2v2.7c-.12.13-.23.26-.36.38Z"/></g></g></g></svg>