<?xml version="1.0" standalone="no"?><svg xmlns="http://www.w3.org/2000/svg" viewBox="0 0 1440 320"><path fill="#001a55" fill-opacity="1" d="M0,256L34.3,240C68.6,224,137,192,206,160C274.3,128,343,96,411,117.3C480,139,549,213,617,213.3C685.7,213,754,139,823,90.7C891.4,43,960,21,1029,48C1097.1,75,1166,149,1234,154.7C1302.9,160,1371,96,1406,64L1440,32L1440,0L1405.7,0C1371.4,0,1303,0,1234,0C1165.7,0,1097,0,1029,0C960,0,891,0,823,0C754.3,0,686,0,617,0C548.6,0,480,0,411,0C342.9,0,274,0,206,0C137.1,0,69,0,34,0L0,0Z"></path></svg>